<svg xmlns="http://www.w3.org/2000/svg" viewBox="0 0 400 400">
  <defs>
    <linearGradient id="bg" x1="0%" y1="0%" x2="100%" y2="100%">
      <stop offset="0%" style="stop-color:#fdf2f8"/>
      <stop offset="100%" style="stop-color:#fce7f3"/>
    </linearGradient>
  </defs>
  <rect width="400" height="400" fill="url(#bg)" rx="24"/>
  <g transform="translate(130, 50)">
    <rect x="10" y="8" width="50" height="28" rx="5" fill="#be185d"/>
    <rect x="20" y="0" width="30" height="12" rx="3" fill="#9d174d"/>
    <rect x="0" y="35" width="80" height="150" rx="14" fill="#ec4899"/>
    <rect x="8" y="70" width="64" height="56" rx="8" fill="white" opacity="0.12"/>
    <text x="40" y="98" text-anchor="middle" font-family="sans-serif" font-size="11" font-weight="bold" fill="white" letter-spacing="1">FABRIX</text>
    <text x="40" y="112" text-anchor="middle" font-family="sans-serif" font-size="7" fill="white" opacity="0.8">Fabric Care</text>
    <text x="40" y="124" text-anchor="middle" font-family="sans-serif" font-size="7" fill="white" opacity="0.8">1L</text>
    <line x1="8" y1="142" x2="72" y2="142" stroke="white" stroke-width="1.5" opacity="0.35" stroke-linecap="round"/>
    <line x1="12" y1="154" x2="68" y2="154" stroke="white" stroke-width="1.5" opacity="0.25" stroke-linecap="round"/>
    <line x1="16" y1="166" x2="64" y2="166" stroke="white" stroke-width="1.5" opacity="0.25" stroke-linecap="round"/>
    <circle cx="50" cy="20" r="2.5" fill="white" opacity="0.5"/>
    <!-- Fabric decoration -->
    <path d="M130 80 Q140 60 150 80 Q160 60 170 80" stroke="#ec4899" stroke-width="2" fill="none" opacity="0.3"/>
  </g>
  <ellipse cx="200" cy="280" rx="60" ry="6" fill="#ec4899" opacity="0.08"/>
  <text x="200" y="330" text-anchor="middle" font-family="sans-serif" font-size="18" font-weight="bold" fill="#be185d">FABRIX</text>
  <text x="200" y="355" text-anchor="middle" font-family="sans-serif" font-size="12" fill="#64748b">Fabric Detergent · 1L · ₹149</text>
</svg>
